<?xml version="1.0" encoding="utf-8"?>
<!-- Generator: Adobe Illustrator 21.0.2, SVG Export Plug-In . SVG Version: 6.00 Build 0)  -->
<svg version="1.1" id="Ebene_1" xmlns="http://www.w3.org/2000/svg" x="0px" y="0px"
     viewBox="0 0 566.9 566.9" style="enable-background:new 0 0 566.9 566.9;" xml:space="preserve">
<style type="text/css">
	.st0{fill:#1179BF;}
</style>
<g>
	<path class="st0" d="M425.2,283.5c0-78.3-63.5-141.7-141.7-141.7c-78.3,0-141.7,63.5-141.7,141.7c0,78.3,63.5,141.7,141.7,141.7
		C361.7,425.2,425.2,361.7,425.2,283.5 M171.3,221.8h69l-56.9,140.7h200.7c-23.4,29.8-59.8,48.9-100.7,48.9
		c-70.7,0-128-57.3-128-128C155.5,261.1,161.2,240.1,171.3,221.8 M365.5,283v-17.3h-34.7v-43.8h64.7c10.1,18.3,15.8,39.3,15.8,61.7
		c0,22.4-5.7,43.4-15.8,61.7H231.7l56.8-140.7H182.8c23.4-29.8,59.8-48.9,100.7-48.9c40.8,0,77.2,19.1,100.7,48.9l-91.5,0l0,128
		h38.2V283H365.5z"/>
</g>
</svg>
